<mxfile host="app.diagrams.net" modified="2024-07-03T03:54:32.799Z" agent="Mozilla/5.0 (Macintosh; Intel Mac OS X 10_15_7) AppleWebKit/537.36 (KHTML, like Gecko) Chrome/126.0.0.0 Safari/537.36" etag="PPHiT7x_KctMBOMlsAsz" version="24.6.4" type="github">
  <diagram name="第 1 页" id="Jw9xdvwxDHuVv-51iGiA">
    <mxGraphModel dx="1363" dy="709" grid="1" gridSize="10" guides="1" tooltips="1" connect="1" arrows="1" fold="1" page="1" pageScale="1" pageWidth="827" pageHeight="1169" math="0" shadow="0">
      <root>
        <mxCell id="0" />
        <mxCell id="1" parent="0" />
        <mxCell id="ht3Zp5MMhwOx9jALSoPP-1" value="" style="whiteSpace=wrap;html=1;aspect=fixed;" vertex="1" parent="1">
          <mxGeometry x="140" y="80" width="710" height="710" as="geometry" />
        </mxCell>
        <mxCell id="ht3Zp5MMhwOx9jALSoPP-2" value="maincontent(FrameLayout)" style="text;html=1;align=center;verticalAlign=middle;whiteSpace=wrap;rounded=0;fillColor=#d80073;fontColor=#ffffff;strokeColor=#A50040;" vertex="1" parent="1">
          <mxGeometry x="170" y="100" width="190" height="30" as="geometry" />
        </mxCell>
        <mxCell id="ht3Zp5MMhwOx9jALSoPP-3" value="" style="whiteSpace=wrap;html=1;aspect=fixed;" vertex="1" parent="1">
          <mxGeometry x="180" y="140" width="630" height="630" as="geometry" />
        </mxCell>
        <mxCell id="ht3Zp5MMhwOx9jALSoPP-4" value="RelativeLayout" style="text;html=1;align=center;verticalAlign=middle;whiteSpace=wrap;rounded=0;fillColor=#0050ef;fontColor=#ffffff;strokeColor=#001DBC;" vertex="1" parent="1">
          <mxGeometry x="200" y="150" width="100" height="30" as="geometry" />
        </mxCell>
        <mxCell id="ht3Zp5MMhwOx9jALSoPP-5" value="" style="whiteSpace=wrap;html=1;aspect=fixed;" vertex="1" parent="1">
          <mxGeometry x="200" y="200" width="200" height="200" as="geometry" />
        </mxCell>
        <mxCell id="ht3Zp5MMhwOx9jALSoPP-6" value="weather_bg(SceneRootView)" style="text;html=1;align=center;verticalAlign=middle;whiteSpace=wrap;rounded=0;fillColor=#a20025;fontColor=#ffffff;strokeColor=#6F0000;" vertex="1" parent="1">
          <mxGeometry x="220" y="250" width="160" height="30" as="geometry" />
        </mxCell>
        <mxCell id="ht3Zp5MMhwOx9jALSoPP-8" value="" style="rounded=0;whiteSpace=wrap;html=1;" vertex="1" parent="1">
          <mxGeometry x="235" y="290" width="130" height="100" as="geometry" />
        </mxCell>
        <mxCell id="ht3Zp5MMhwOx9jALSoPP-9" value="GLSurfaceView2.0" style="text;html=1;align=center;verticalAlign=middle;whiteSpace=wrap;rounded=0;fillColor=#008a00;fontColor=#ffffff;strokeColor=#005700;" vertex="1" parent="1">
          <mxGeometry x="245" y="305" width="110" height="30" as="geometry" />
        </mxCell>
        <mxCell id="ht3Zp5MMhwOx9jALSoPP-10" value="动态背景" style="text;html=1;align=center;verticalAlign=middle;whiteSpace=wrap;rounded=0;" vertex="1" parent="1">
          <mxGeometry x="270" y="210" width="60" height="30" as="geometry" />
        </mxCell>
        <mxCell id="ht3Zp5MMhwOx9jALSoPP-11" value="" style="rounded=0;whiteSpace=wrap;html=1;" vertex="1" parent="1">
          <mxGeometry x="450" y="200" width="220" height="80" as="geometry" />
        </mxCell>
        <mxCell id="ht3Zp5MMhwOx9jALSoPP-12" value="iv_weather_bg(MjImageview)" style="text;html=1;align=center;verticalAlign=middle;whiteSpace=wrap;rounded=0;fillColor=#e3c800;fontColor=#000000;strokeColor=#B09500;" vertex="1" parent="1">
          <mxGeometry x="465" y="240" width="190" height="30" as="geometry" />
        </mxCell>
        <mxCell id="ht3Zp5MMhwOx9jALSoPP-13" value="" style="rounded=0;whiteSpace=wrap;html=1;" vertex="1" parent="1">
          <mxGeometry x="450" y="310" width="220" height="90" as="geometry" />
        </mxCell>
        <mxCell id="ht3Zp5MMhwOx9jALSoPP-14" value="iv_weather_bg_blur(MjImageview)" style="text;html=1;align=center;verticalAlign=middle;whiteSpace=wrap;rounded=0;fillColor=#e3c800;fontColor=#000000;strokeColor=#B09500;" vertex="1" parent="1">
          <mxGeometry x="465" y="360" width="190" height="30" as="geometry" />
        </mxCell>
        <mxCell id="ht3Zp5MMhwOx9jALSoPP-15" value="模糊静态背景图" style="text;html=1;align=center;verticalAlign=middle;whiteSpace=wrap;rounded=0;" vertex="1" parent="1">
          <mxGeometry x="520" y="320" width="60" height="30" as="geometry" />
        </mxCell>
        <mxCell id="ht3Zp5MMhwOx9jALSoPP-16" value="静态背景图" style="text;html=1;align=center;verticalAlign=middle;whiteSpace=wrap;rounded=0;" vertex="1" parent="1">
          <mxGeometry x="520" y="200" width="70" height="30" as="geometry" />
        </mxCell>
      </root>
    </mxGraphModel>
  </diagram>
</mxfile>
